REM MD5 bf6039bb7bb0e50810b52e19d93bd56d
FILE "Tomb Raider (USA).bin" BINARY
  TRACK 01 MODE2/2352
    INDEX 01 00:00:00
  TRACK 02 AUDIO
    INDEX 00 27:42:59
    INDEX 01 27:44:59
  TRACK 03 AUDIO
    INDEX 00 30:59:27
    INDEX 01 31:01:27
  TRACK 04 AUDIO
    INDEX 00 32:03:25
    INDEX 01 32:05:25
  TRACK 05 AUDIO
    INDEX 00 34:06:64
    INDEX 01 34:08:64
  TRACK 06 AUDIO
    INDEX 00 36:07:00
    INDEX 01 36:09:00
  TRACK 07 AUDIO
    INDEX 00 37:23:74
    INDEX 01 37:25:74
  TRACK 08 AUDIO
    INDEX 00 38:19:65
    INDEX 01 38:21:65
  TRACK 09 AUDIO
    INDEX 00 39:28:09
    INDEX 01 39:30:09
  TRACK 10 AUDIO
    INDEX 00 40:08:15
    INDEX 01 40:10:15
  TRACK 11 AUDIO
    INDEX 00 41:27:36
    INDEX 01 41:29:36
  TRACK 12 AUDIO
    INDEX 00 41:35:73
    INDEX 01 41:37:73
  TRACK 13 AUDIO
    INDEX 00 41:50:72
    INDEX 01 41:52:72
  TRACK 14 AUDIO
    INDEX 00 41:58:00
    INDEX 01 42:00:00
  TRACK 15 AUDIO
    INDEX 00 42:10:05
    INDEX 01 42:12:05
  TRACK 16 AUDIO
    INDEX 00 42:21:08
    INDEX 01 42:23:08
  TRACK 17 AUDIO
    INDEX 00 42:59:71
    INDEX 01 43:01:71
  TRACK 18 AUDIO
    INDEX 00 43:42:60
    INDEX 01 43:44:60
  TRACK 19 AUDIO
    INDEX 00 44:08:09
    INDEX 01 44:10:09
  TRACK 20 AUDIO
    INDEX 00 45:36:54
    INDEX 01 45:38:54
  TRACK 21 AUDIO
    INDEX 00 46:30:71
    INDEX 01 46:32:71
  TRACK 22 AUDIO
    INDEX 00 47:12:13
    INDEX 01 47:14:13
  TRACK 23 AUDIO
    INDEX 00 48:15:51
    INDEX 01 48:17:51
  TRACK 24 AUDIO
    INDEX 00 49:13:20
    INDEX 01 49:15:20
  TRACK 25 AUDIO
    INDEX 00 49:28:48
    INDEX 01 49:30:48
  TRACK 26 AUDIO
    INDEX 00 50:05:36
    INDEX 01 50:07:36
  TRACK 27 AUDIO
    INDEX 00 50:12:37
    INDEX 01 50:14:37
  TRACK 28 AUDIO
    INDEX 00 50:19:38
    INDEX 01 50:21:38
  TRACK 29 AUDIO
    INDEX 00 50:26:38
    INDEX 01 50:28:38
  TRACK 30 AUDIO
    INDEX 00 50:33:39
    INDEX 01 50:35:39
  TRACK 31 AUDIO
    INDEX 00 50:41:37
    INDEX 01 50:43:37
  TRACK 32 AUDIO
    INDEX 00 50:48:38
    INDEX 01 50:50:38
  TRACK 33 AUDIO
    INDEX 00 50:58:01
    INDEX 01 51:00:01
  TRACK 34 AUDIO
    INDEX 00 51:07:43
    INDEX 01 51:09:43
  TRACK 35 AUDIO
    INDEX 00 51:15:15
    INDEX 01 51:17:15
  TRACK 36 AUDIO
    INDEX 00 51:22:29
    INDEX 01 51:24:29
  TRACK 37 AUDIO
    INDEX 00 51:39:25
    INDEX 01 51:41:25
  TRACK 38 AUDIO
    INDEX 00 51:46:26
    INDEX 01 51:48:26
  TRACK 39 AUDIO
    INDEX 00 51:53:27
    INDEX 01 51:55:27
  TRACK 40 AUDIO
    INDEX 00 52:09:33
    INDEX 01 52:11:33
  TRACK 41 AUDIO
    INDEX 00 52:19:73
    INDEX 01 52:21:73
  TRACK 42 AUDIO
    INDEX 00 52:26:74
    INDEX 01 52:28:74
  TRACK 43 AUDIO
    INDEX 00 52:33:74
    INDEX 01 52:35:74
  TRACK 44 AUDIO
    INDEX 00 52:43:12
    INDEX 01 52:45:12
  TRACK 45 AUDIO
    INDEX 00 52:51:36
    INDEX 01 52:53:36
  TRACK 46 AUDIO
    INDEX 00 53:01:27
    INDEX 01 53:03:27
  TRACK 47 AUDIO
    INDEX 00 53:08:28
    INDEX 01 53:10:28
  TRACK 48 AUDIO
    INDEX 00 53:15:29
    INDEX 01 53:17:29
  TRACK 49 AUDIO
    INDEX 00 53:22:30
    INDEX 01 53:24:30
  TRACK 50 AUDIO
    INDEX 00 53:38:26
    INDEX 01 53:40:26
  TRACK 51 AUDIO
    INDEX 00 53:45:26
    INDEX 01 53:47:26
  TRACK 52 AUDIO
    INDEX 00 53:52:26
    INDEX 01 53:54:26
  TRACK 53 AUDIO
    INDEX 00 53:59:27
    INDEX 01 54:01:27
  TRACK 54 AUDIO
    INDEX 00 54:08:47
    INDEX 01 54:10:47
  TRACK 55 AUDIO
    INDEX 00 54:15:48
    INDEX 01 54:17:48
  TRACK 56 AUDIO
    INDEX 00 54:25:27
    INDEX 01 54:27:27
  TRACK 57 AUDIO
    INDEX 00 54:32:28
    INDEX 01 54:34:28
REM LEADOUT 57:51:28
